<svg width="83" height="40" viewBox="0 0 83 40" fill="none" xmlns="http://www.w3.org/2000/svg">
<path fill-rule="evenodd" clip-rule="evenodd" d="M46.353 0.000375226C49.5757 -0.0110692 52.1989 2.56542 52.2108 5.75427C52.2226 8.94106 49.6191 11.5352 46.3964 11.5464C43.1719 11.5575 40.5513 8.98102 40.5392 5.79423C40.527 2.60557 43.1284 0.0114444 46.353 0.000375226ZM59.0503 0.000375226C62.273 -0.0110692 64.8962 2.56542 64.9081 5.75427C64.9199 8.94106 62.3162 11.5352 59.0935 11.5464C55.8692 11.5575 53.2486 8.98102 53.2365 5.79423C53.2243 2.60557 55.8257 0.0114444 59.0503 0.000375226ZM31.2085 28.34C34.4314 28.3288 37.0544 30.9053 37.0661 34.0941C37.0781 37.2809 34.4744 39.875 31.2517 39.8863C28.0273 39.8972 25.4068 37.3209 25.3946 34.1341C25.3825 30.9452 27.9839 28.3511 31.2085 28.34ZM5.81388 28.34C9.03676 28.3288 11.6598 30.9053 11.6715 34.0941C11.6835 37.2809 9.07981 39.875 5.85712 39.8863C2.63273 39.8972 0.0121785 37.3209 4.09944e-05 34.1341C-0.0119068 30.9452 2.5893 28.3511 5.81388 28.34ZM18.5112 28.34C21.7341 28.3288 24.3571 30.9053 24.369 34.0941C24.3808 37.2809 21.7771 39.875 18.5544 39.8863C15.33 39.8972 12.7095 37.3209 12.6973 34.1341C12.6852 30.9452 15.2866 28.3511 18.5112 28.34ZM29.6454 23.2443L31.4541 23.2379C32.3953 23.2343 33.1053 22.8706 33.5853 22.1421C34.0636 21.4156 34.3663 20.5087 34.5002 19.4204C34.6341 18.3356 34.6963 17.0257 34.6908 15.4857L34.672 10.3193C34.6667 8.89923 34.5954 7.68593 34.449 6.68427C34.302 5.6841 33.9923 4.85673 33.5201 4.20665C33.0464 3.56502 32.3585 3.24251 31.4507 3.2457L29.5732 3.25227L29.6454 23.2443ZM27.1538 0.691916L31.62 0.675781C32.8359 0.671654 33.8201 1.04725 34.5742 1.80915C35.332 2.56861 35.889 3.55489 36.248 4.77062C36.6017 5.99292 36.8405 7.26568 36.9486 8.60017C37.0606 9.93128 37.1177 11.4579 37.1242 13.1706C37.1302 14.8944 37.0842 16.4257 36.9817 17.7598C36.8837 19.0924 36.654 20.3667 36.2945 21.577C35.9393 22.7914 35.3809 23.7707 34.6313 24.5345C33.8706 25.2953 32.878 25.6838 31.6521 25.7015L27.2447 25.7172L27.1538 0.691916ZM17.222 0.695856L24.1041 0.671091L24.975 3.19598L19.6373 3.21456L19.6735 13.1672L24.728 13.149L24.7369 15.6792L19.7524 15.697L19.7797 23.216L24.7644 23.1981L24.7735 25.726L17.313 25.7525L17.2766 15.7058L15.3757 15.7126L16.2229 13.2447L17.2677 13.2411L17.222 0.695856ZM7.35364 24.9816L5.0094 8.0833L2.28473 26.3339L4.09944e-05 25.8812L3.8791 2.17162L5.89847 0.0840505L7.50896 13.8012L9.1477 2.08776L11.2278 0L14.6824 25.7617L12.5018 26.227L10.2738 7.99418L7.35364 24.9816ZM74.2445 13.51L77.5525 33.3529L80.5564 13.5471L82.8409 13.9608L78.4393 39.8863L76.3642 37.8107L71.9018 13.9997L74.2445 13.51ZM62.7615 14.0004L69.6438 13.9762L70.516 16.5028L65.1773 16.5219L65.2131 26.474L70.267 26.4564L70.2765 28.9839L65.292 29.0019L65.3195 36.5203L70.3032 36.5027L70.3129 39.034L62.8522 39.0602L62.816 29.0109L60.9155 29.0175L61.7623 26.5497L62.807 26.5461L62.7615 14.0004ZM57.0182 28.617L56.7025 28.8177L60.0059 38.8103L57.9773 39.6028L53.8386 26.5144L54.3774 26.5127C54.9958 26.5103 55.5039 26.3904 55.8985 26.1545C56.2896 25.9196 56.598 25.4371 56.8191 24.7094C57.0423 23.9839 57.15 22.91 57.1449 21.4955C57.1149 20.2025 57.001 19.2042 56.7962 18.4913C56.5978 17.7819 56.2788 17.2803 55.846 16.9923C55.4117 16.7032 54.8121 16.5587 54.0555 16.561L53.4225 16.5634L53.5042 39.0938L51.157 39.1019L51.0663 14.0421L54.2431 14.0306C55.473 14.0263 56.4802 14.2347 57.253 14.6497C58.0253 15.0687 58.6101 15.8203 59.0109 16.902C59.4163 17.9784 59.6287 19.5091 59.657 21.4867C59.6627 22.9758 59.5605 24.1955 59.3471 25.1456C59.141 26.0889 58.8811 26.7926 58.5834 27.2545C58.2784 27.7232 57.9727 28.0487 57.6564 28.2333C57.3446 28.4232 57.1286 28.5492 57.0182 28.617ZM42.9293 26.6166L43.443 26.6149C44.2638 26.6117 44.8963 26.4862 45.3454 26.2339C45.7882 25.9834 46.1123 25.5013 46.3225 24.7739C46.5265 24.0521 46.6276 22.9692 46.6227 21.5329C46.6179 20.2399 46.5131 19.2414 46.3054 18.5283C46.1025 17.8193 45.7721 17.3174 45.3219 17.0298C44.877 16.7407 44.2568 16.5962 43.4654 16.5989L42.8933 16.6007L42.9293 26.6166ZM42.975 39.131L40.63 39.1394L40.5392 14.0794L43.7095 14.0681C44.9361 14.0636 45.9314 14.2725 46.6972 14.6914C47.4678 15.1118 48.0498 15.8668 48.4497 16.9553C48.8499 18.0418 49.0572 19.5641 49.0642 21.5209C49.0699 23.1332 48.9686 24.4339 48.7661 25.4157C48.559 26.3969 48.2499 27.1446 47.8288 27.6671C47.4118 28.1879 46.8899 28.5436 46.2724 28.7291C45.656 28.9166 44.873 29.0104 43.9232 29.0141L42.9382 29.0175L42.975 39.131ZM71.7476 0.000375226C74.9703 -0.0110692 77.5935 2.56542 77.6053 5.75427C77.6172 8.94106 75.0135 11.5352 71.7908 11.5464C68.5665 11.5575 65.9461 8.98102 65.9338 5.79423C65.9218 2.60557 68.5228 0.0114444 71.7476 0.000375226Z" fill="#005A3C"/>
</svg>
